# Blender v2.80 (sub 75) OBJ File: ''
# www.blender.org
mtllib cube.mtl
o Cube
v 0.979326 0.954287 -0.953897
v 1.000000 -1.000000 -1.000000
v 1.010585 1.010585 1.010585
v 1.000000 -1.000000 1.000000
v -0.979326 0.954287 -0.953897
v -1.000000 -1.000000 -1.000000
v -1.010585 1.010585 1.010585
v -1.000000 -1.000000 1.000000
vt 0.625000 0.000000
vt 0.375000 0.250000
vt 0.375000 0.000000
vt 0.625000 0.250000
vt 0.375000 0.500000
vt 0.375000 0.250000
vt 0.625000 0.750000
vt 0.375000 0.750000
vt 0.625000 0.750000
vt 0.375000 1.000000
vt 0.375000 0.500000
vt 0.125000 0.750000
vt 0.125000 0.500000
vt 0.875000 0.500000
vt 0.625000 0.500000
vt 0.625000 0.250000
vt 0.625000 0.500000
vt 0.625000 1.000000
vt 0.375000 0.750000
vt 0.875000 0.750000
vn 0.0000 0.9996 -0.0286
vn 0.0000 -0.0053 1.0000
vn -0.9999 0.0106 0.0000
vn 0.0000 -1.0000 0.0000
vn 0.9999 0.0106 0.0000
vn 0.0000 0.0236 -0.9997
vn -0.9999 -0.0052 -0.0158
vn 0.9999 -0.0052 -0.0158
usemtl Material
s off
f 5/1/1 3/2/1 1/3/1
f 3/4/2 8/5/2 4/6/2
f 8/5/3 5/7/3 6/8/3
f 2/9/4 8/10/4 6/8/4
f 1/11/5 4/12/5 2/13/5
f 5/14/6 2/9/6 6/15/6
f 5/1/1 7/16/1 3/2/1
f 3/4/2 7/17/2 8/5/2
f 8/5/7 7/17/7 5/7/7
f 2/9/4 4/18/4 8/10/4
f 1/11/8 3/19/8 4/12/8
f 5/14/6 1/20/6 2/9/6
